<svg xmlns="http://www.w3.org/2000/svg" viewBox="0 0 512 512"><rect width="512" height="512" rx="112" fill="#0a0c10"/><polygon points="256.0,66.0 426.5,164.0 426.5,360.0 256.0,458.0 85.5,360.0 85.5,164.0" fill="#07090c" stroke="#07090c" stroke-width="21.6" stroke-linejoin="round"/><polygon points="256.0,257.1 304.3,229.3 256.0,201.6 207.7,229.3" fill="#ffd500" stroke="#ffd500" stroke-width="5.9" stroke-linejoin="round"/><polygon points="199.2,224.4 247.5,196.7 199.2,168.9 150.8,196.7" fill="#ffd500" stroke="#ffd500" stroke-width="5.9" stroke-linejoin="round"/><polygon points="142.3,191.8 190.6,164.0 142.3,136.2 94.0,164.0" fill="#ffd500" stroke="#ffd500" stroke-width="5.9" stroke-linejoin="round"/><polygon points="312.8,224.4 361.2,196.7 312.8,168.9 264.5,196.7" fill="#ffd500" stroke="#ffd500" stroke-width="5.9" stroke-linejoin="round"/><polygon points="256.0,191.8 304.3,164.0 256.0,136.2 207.7,164.0" fill="#ffd500" stroke="#ffd500" stroke-width="5.9" stroke-linejoin="round"/><polygon points="199.2,159.1 247.5,131.3 199.2,103.6 150.8,131.3" fill="#ffd500" stroke="#ffd500" stroke-width="5.9" stroke-linejoin="round"/><polygon points="369.7,191.8 418.0,164.0 369.7,136.2 321.4,164.0" fill="#ffd500" stroke="#ffd500" stroke-width="5.9" stroke-linejoin="round"/><polygon points="312.8,159.1 361.2,131.3 312.8,103.6 264.5,131.3" fill="#ffd500" stroke="#ffd500" stroke-width="5.9" stroke-linejoin="round"/><polygon points="256.0,126.4 304.3,98.7 256.0,70.9 207.7,98.7" fill="#ffd500" stroke="#ffd500" stroke-width="5.9" stroke-linejoin="round"/><polygon points="251.7,264.4 203.4,236.7 203.4,292.2 251.7,320.0" fill="#1a73e8" stroke="#1a73e8" stroke-width="5.9" stroke-linejoin="round"/><polygon points="251.7,329.8 203.4,302.0 203.4,357.6 251.7,385.3" fill="#1a73e8" stroke="#1a73e8" stroke-width="5.9" stroke-linejoin="round"/><polygon points="251.7,395.1 203.4,367.4 203.4,422.9 251.7,450.6" fill="#1a73e8" stroke="#1a73e8" stroke-width="5.9" stroke-linejoin="round"/><polygon points="194.9,231.8 146.6,204.0 146.6,259.6 194.9,287.3" fill="#1a73e8" stroke="#1a73e8" stroke-width="5.9" stroke-linejoin="round"/><polygon points="194.9,297.1 146.6,269.4 146.6,324.9 194.9,352.6" fill="#1a73e8" stroke="#1a73e8" stroke-width="5.9" stroke-linejoin="round"/><polygon points="194.9,362.5 146.6,334.7 146.6,390.2 194.9,418.0" fill="#1a73e8" stroke="#1a73e8" stroke-width="5.9" stroke-linejoin="round"/><polygon points="138.1,199.1 89.7,171.3 89.7,226.9 138.1,254.6" fill="#1a73e8" stroke="#1a73e8" stroke-width="5.9" stroke-linejoin="round"/><polygon points="138.1,264.4 89.7,236.7 89.7,292.2 138.1,320.0" fill="#1a73e8" stroke="#1a73e8" stroke-width="5.9" stroke-linejoin="round"/><polygon points="138.1,329.8 89.7,302.0 89.7,357.5 138.1,385.3" fill="#1a73e8" stroke="#1a73e8" stroke-width="5.9" stroke-linejoin="round"/><polygon points="260.3,264.4 308.6,236.7 308.6,292.2 260.3,320.0" fill="#ef2b2d" stroke="#ef2b2d" stroke-width="5.9" stroke-linejoin="round"/><polygon points="260.3,329.8 308.6,302.0 308.6,357.6 260.3,385.3" fill="#ef2b2d" stroke="#ef2b2d" stroke-width="5.9" stroke-linejoin="round"/><polygon points="260.3,395.1 308.6,367.4 308.6,422.9 260.3,450.6" fill="#ef2b2d" stroke="#ef2b2d" stroke-width="5.9" stroke-linejoin="round"/><polygon points="317.1,231.8 365.4,204.0 365.4,259.6 317.1,287.3" fill="#ef2b2d" stroke="#ef2b2d" stroke-width="5.9" stroke-linejoin="round"/><polygon points="317.1,297.1 365.4,269.4 365.4,324.9 317.1,352.6" fill="#ef2b2d" stroke="#ef2b2d" stroke-width="5.9" stroke-linejoin="round"/><polygon points="317.1,362.5 365.4,334.7 365.4,390.2 317.1,418.0" fill="#ef2b2d" stroke="#ef2b2d" stroke-width="5.9" stroke-linejoin="round"/><polygon points="373.9,199.1 422.3,171.3 422.3,226.9 373.9,254.6" fill="#ef2b2d" stroke="#ef2b2d" stroke-width="5.9" stroke-linejoin="round"/><polygon points="373.9,264.4 422.3,236.7 422.3,292.2 373.9,320.0" fill="#ef2b2d" stroke="#ef2b2d" stroke-width="5.9" stroke-linejoin="round"/><polygon points="373.9,329.8 422.3,302.0 422.3,357.5 373.9,385.3" fill="#ef2b2d" stroke="#ef2b2d" stroke-width="5.9" stroke-linejoin="round"/></svg>